<mxfile host="app.diagrams.net" modified="2024-03-15T19:15:47.978Z" agent="Mozilla/5.0 (Windows NT 10.0; Win64; x64) AppleWebKit/537.36 (KHTML, like Gecko) Chrome/122.0.0.0 Safari/537.36" etag="3sgjvY3nWYltcNseApOV" version="24.0.7" type="google">
  <diagram name="Страница — 1" id="hNk7zjcAap7rxLSEqQDm">
    <mxGraphModel grid="1" page="1" gridSize="10" guides="1" tooltips="1" connect="1" arrows="1" fold="1" pageScale="1" pageWidth="827" pageHeight="1169" math="0" shadow="0">
      <root>
        <mxCell id="0" />
        <mxCell id="1" parent="0" />
        <mxCell id="ZHH0qf_gZimHMgIF1Utr-11" value="Клиент" style="shape=umlActor;verticalLabelPosition=bottom;verticalAlign=top;html=1;outlineConnect=0;" vertex="1" parent="1">
          <mxGeometry x="280" y="400" width="30" height="60" as="geometry" />
        </mxCell>
        <mxCell id="ZHH0qf_gZimHMgIF1Utr-15" value="Управление автошколой" style="shape=umlBoundary;whiteSpace=wrap;html=1;" vertex="1" parent="1">
          <mxGeometry x="400" y="260" width="100" height="80" as="geometry" />
        </mxCell>
        <mxCell id="ZHH0qf_gZimHMgIF1Utr-16" value="" style="endArrow=classic;html=1;rounded=0;exitX=0.5;exitY=0;exitDx=0;exitDy=0;exitPerimeter=0;entryX=0.332;entryY=0.895;entryDx=0;entryDy=0;entryPerimeter=0;" edge="1" parent="1" source="ZHH0qf_gZimHMgIF1Utr-11" target="ZHH0qf_gZimHMgIF1Utr-15">
          <mxGeometry width="50" height="50" relative="1" as="geometry">
            <mxPoint x="300" y="430" as="sourcePoint" />
            <mxPoint x="420" y="340" as="targetPoint" />
          </mxGeometry>
        </mxCell>
        <mxCell id="ZHH0qf_gZimHMgIF1Utr-17" value="Запись в автошколу" style="shape=umlBoundary;whiteSpace=wrap;html=1;" vertex="1" parent="1">
          <mxGeometry x="220" y="260" width="100" height="80" as="geometry" />
        </mxCell>
        <mxCell id="ZHH0qf_gZimHMgIF1Utr-19" value="Передача информации об обучении" style="ellipse;shape=umlControl;whiteSpace=wrap;html=1;" vertex="1" parent="1">
          <mxGeometry x="410" y="120" width="100" height="80" as="geometry" />
        </mxCell>
        <mxCell id="ZHH0qf_gZimHMgIF1Utr-20" value="" style="endArrow=classic;html=1;rounded=0;exitX=0.589;exitY=-0.007;exitDx=0;exitDy=0;exitPerimeter=0;" edge="1" parent="1" source="ZHH0qf_gZimHMgIF1Utr-15">
          <mxGeometry width="50" height="50" relative="1" as="geometry">
            <mxPoint x="350" y="250" as="sourcePoint" />
            <mxPoint x="459" y="200" as="targetPoint" />
          </mxGeometry>
        </mxCell>
        <mxCell id="t-aAbnNSbAPvarOVa4SW-2" value="" style="endArrow=none;dashed=1;html=1;dashPattern=1 3;strokeWidth=2;rounded=0;exitX=1.024;exitY=0.585;exitDx=0;exitDy=0;exitPerimeter=0;" edge="1" parent="1" source="ZHH0qf_gZimHMgIF1Utr-19">
          <mxGeometry width="50" height="50" relative="1" as="geometry">
            <mxPoint x="560" y="160" as="sourcePoint" />
            <mxPoint x="580" y="167" as="targetPoint" />
          </mxGeometry>
        </mxCell>
        <mxCell id="t-aAbnNSbAPvarOVa4SW-3" value="Информация о клиенте" style="ellipse;shape=umlEntity;whiteSpace=wrap;html=1;" vertex="1" parent="1">
          <mxGeometry x="640" y="70" width="100" height="80" as="geometry" />
        </mxCell>
        <mxCell id="t-aAbnNSbAPvarOVa4SW-4" value="Информация о траектории обучения" style="ellipse;shape=umlEntity;whiteSpace=wrap;html=1;" vertex="1" parent="1">
          <mxGeometry x="640" y="180" width="100" height="80" as="geometry" />
        </mxCell>
        <mxCell id="t-aAbnNSbAPvarOVa4SW-5" value="" style="endArrow=none;dashed=1;html=1;dashPattern=1 3;strokeWidth=2;rounded=0;" edge="1" parent="1">
          <mxGeometry width="50" height="50" relative="1" as="geometry">
            <mxPoint x="580" y="220" as="sourcePoint" />
            <mxPoint x="580" y="170" as="targetPoint" />
          </mxGeometry>
        </mxCell>
        <mxCell id="t-aAbnNSbAPvarOVa4SW-7" value="" style="endArrow=classic;html=1;rounded=0;dashed=1;entryX=0;entryY=0.5;entryDx=0;entryDy=0;" edge="1" parent="1" target="t-aAbnNSbAPvarOVa4SW-4">
          <mxGeometry width="50" height="50" relative="1" as="geometry">
            <mxPoint x="580" y="220" as="sourcePoint" />
            <mxPoint x="660" y="200" as="targetPoint" />
          </mxGeometry>
        </mxCell>
        <mxCell id="t-aAbnNSbAPvarOVa4SW-8" value="" style="endArrow=none;dashed=1;html=1;dashPattern=1 3;strokeWidth=2;rounded=0;" edge="1" parent="1">
          <mxGeometry width="50" height="50" relative="1" as="geometry">
            <mxPoint x="580" y="170" as="sourcePoint" />
            <mxPoint x="580" y="110" as="targetPoint" />
          </mxGeometry>
        </mxCell>
        <mxCell id="t-aAbnNSbAPvarOVa4SW-9" value="" style="endArrow=classic;html=1;rounded=0;dashed=1;entryX=0;entryY=0.5;entryDx=0;entryDy=0;" edge="1" parent="1">
          <mxGeometry width="50" height="50" relative="1" as="geometry">
            <mxPoint x="580" y="109.8" as="sourcePoint" />
            <mxPoint x="640" y="109.8" as="targetPoint" />
          </mxGeometry>
        </mxCell>
        <mxCell id="t-aAbnNSbAPvarOVa4SW-10" value="Информация о персонале" style="ellipse;shape=umlEntity;whiteSpace=wrap;html=1;" vertex="1" parent="1">
          <mxGeometry x="250" y="130" width="90" height="80" as="geometry" />
        </mxCell>
        <mxCell id="t-aAbnNSbAPvarOVa4SW-12" value="" style="endArrow=classic;html=1;rounded=0;dashed=1;exitX=-0.008;exitY=0.587;exitDx=0;exitDy=0;exitPerimeter=0;entryX=1.002;entryY=0.462;entryDx=0;entryDy=0;entryPerimeter=0;" edge="1" parent="1" source="ZHH0qf_gZimHMgIF1Utr-19" target="t-aAbnNSbAPvarOVa4SW-10">
          <mxGeometry width="50" height="50" relative="1" as="geometry">
            <mxPoint x="590" y="230" as="sourcePoint" />
            <mxPoint x="590" y="270" as="targetPoint" />
          </mxGeometry>
        </mxCell>
        <mxCell id="t-aAbnNSbAPvarOVa4SW-14" value="" style="endArrow=none;dashed=1;html=1;dashPattern=1 3;strokeWidth=2;rounded=0;" edge="1" parent="1">
          <mxGeometry width="50" height="50" relative="1" as="geometry">
            <mxPoint x="210" y="420" as="sourcePoint" />
            <mxPoint x="210" y="160" as="targetPoint" />
          </mxGeometry>
        </mxCell>
        <mxCell id="t-aAbnNSbAPvarOVa4SW-15" value="" style="endArrow=none;dashed=1;html=1;dashPattern=1 3;strokeWidth=2;rounded=0;entryX=0.005;entryY=0.386;entryDx=0;entryDy=0;entryPerimeter=0;" edge="1" parent="1" target="t-aAbnNSbAPvarOVa4SW-10">
          <mxGeometry width="50" height="50" relative="1" as="geometry">
            <mxPoint x="210" y="161" as="sourcePoint" />
            <mxPoint x="240" y="90" as="targetPoint" />
          </mxGeometry>
        </mxCell>
        <mxCell id="t-aAbnNSbAPvarOVa4SW-16" value="" style="endArrow=none;dashed=1;html=1;dashPattern=1 3;strokeWidth=2;rounded=0;entryX=0;entryY=0.3333333333333333;entryDx=0;entryDy=0;entryPerimeter=0;" edge="1" parent="1" target="ZHH0qf_gZimHMgIF1Utr-11">
          <mxGeometry width="50" height="50" relative="1" as="geometry">
            <mxPoint x="210" y="420" as="sourcePoint" />
            <mxPoint x="250" y="481" as="targetPoint" />
          </mxGeometry>
        </mxCell>
        <mxCell id="t-aAbnNSbAPvarOVa4SW-18" value="" style="endArrow=diamondThin;endFill=1;endSize=24;html=1;rounded=0;exitX=1.027;exitY=0.506;exitDx=0;exitDy=0;exitPerimeter=0;" edge="1" parent="1" source="ZHH0qf_gZimHMgIF1Utr-17">
          <mxGeometry width="160" relative="1" as="geometry">
            <mxPoint x="330" y="320.42" as="sourcePoint" />
            <mxPoint x="400" y="300" as="targetPoint" />
          </mxGeometry>
        </mxCell>
        <mxCell id="t-aAbnNSbAPvarOVa4SW-19" value="Получение водительских прав" style="shape=umlBoundary;whiteSpace=wrap;html=1;" vertex="1" parent="1">
          <mxGeometry x="390" y="380" width="120" height="80" as="geometry" />
        </mxCell>
        <mxCell id="t-aAbnNSbAPvarOVa4SW-20" value="" style="endArrow=diamondThin;endFill=1;endSize=24;html=1;rounded=0;exitX=0.567;exitY=-0.027;exitDx=0;exitDy=0;exitPerimeter=0;entryX=0.593;entryY=1.023;entryDx=0;entryDy=0;entryPerimeter=0;" edge="1" parent="1" source="t-aAbnNSbAPvarOVa4SW-19" target="ZHH0qf_gZimHMgIF1Utr-15">
          <mxGeometry width="160" relative="1" as="geometry">
            <mxPoint x="333" y="310" as="sourcePoint" />
            <mxPoint x="456" y="343" as="targetPoint" />
          </mxGeometry>
        </mxCell>
        <mxCell id="t-aAbnNSbAPvarOVa4SW-21" value="Сдача теории и практики" style="shape=umlBoundary;whiteSpace=wrap;html=1;" vertex="1" parent="1">
          <mxGeometry x="390" y="505" width="120" height="80" as="geometry" />
        </mxCell>
        <mxCell id="t-aAbnNSbAPvarOVa4SW-23" value="" style="endArrow=diamondThin;endFill=0;endSize=24;html=1;rounded=0;exitX=0.578;exitY=-0.019;exitDx=0;exitDy=0;exitPerimeter=0;entryX=0.573;entryY=1.014;entryDx=0;entryDy=0;entryPerimeter=0;" edge="1" parent="1" source="t-aAbnNSbAPvarOVa4SW-21" target="t-aAbnNSbAPvarOVa4SW-19">
          <mxGeometry width="160" relative="1" as="geometry">
            <mxPoint x="410" y="470" as="sourcePoint" />
            <mxPoint x="570" y="470" as="targetPoint" />
          </mxGeometry>
        </mxCell>
        <mxCell id="t-aAbnNSbAPvarOVa4SW-25" value="" style="endArrow=none;dashed=1;html=1;dashPattern=1 3;strokeWidth=2;rounded=0;entryX=-0.033;entryY=0.515;entryDx=0;entryDy=0;entryPerimeter=0;exitX=1;exitY=0.3333333333333333;exitDx=0;exitDy=0;exitPerimeter=0;" edge="1" parent="1" source="ZHH0qf_gZimHMgIF1Utr-11" target="t-aAbnNSbAPvarOVa4SW-19">
          <mxGeometry width="50" height="50" relative="1" as="geometry">
            <mxPoint x="220" y="490" as="sourcePoint" />
            <mxPoint x="280" y="490" as="targetPoint" />
          </mxGeometry>
        </mxCell>
      </root>
    </mxGraphModel>
  </diagram>
</mxfile>
